<svg width="330" height="231" viewBox="0 0 330 231" fill="none" xmlns="http://www.w3.org/2000/svg">
<path d="M250.439 4.54604C251.419 5.3726 251.806 5.85113 251.599 5.91639C251.109 6.04689 252.038 7.15622 254.745 9.67938C259.488 14.1167 261.989 16.8356 266.088 21.9689C267.558 23.8178 269.595 26.167 270.6 27.1893C273.359 29.9952 279.314 34.5847 282.537 36.4119C283.903 37.1949 284.831 37.4342 284.445 36.9121C284.213 36.6076 285.141 37.0862 287.538 38.5435C288.492 39.109 289.266 39.5658 289.266 39.5006C289.266 39.4571 288.931 38.7828 288.492 37.9997C287.255 35.6941 285.734 32.1703 284.341 28.2986C283.62 26.3192 282.666 23.9483 282.253 23.0565C279.134 16.6181 274.106 12.9421 261.293 7.7C256.781 5.87288 249.666 3.26271 249.15 3.26271C249.021 3.26271 249.614 3.82825 250.439 4.54604Z" fill="#C07F00"/>
<path d="M81.9844 5.37262C78.375 6.6342 76.5445 7.17799 76.6992 6.93872C77.2664 6.17743 64.582 11.4848 60.6633 13.6599C55.4555 16.5746 51.9492 19.7503 50.0672 23.2958C48.3914 26.4715 44.2664 37.3037 44.4727 37.9997C44.55 38.2825 44.7305 38.4565 44.8594 38.3913C45.2461 38.1955 45.1687 38.587 44.6016 39.7181C44.318 40.2836 44.1117 40.7839 44.1633 40.8274C44.318 40.9579 50.1703 37.2167 53.4961 34.8675C56.5898 32.6924 60.1734 29.6907 61.9266 27.8418C62.4164 27.298 64.1953 25.1447 65.8711 23.0565C70.6922 17.0314 73.2445 14.3777 80.1023 8.30906C82.4227 6.26443 84.3047 4.56782 84.2531 4.58957C84.2016 4.58957 83.1961 4.95935 81.9844 5.37262Z" fill="#C07F00"/>
<path d="M282.305 17.0966C282.305 17.1618 282.743 17.7709 283.284 18.4452C284.754 20.2723 284.831 20.4028 284.238 20.0113C283.233 19.337 284.084 21.0771 286.146 24.0135C289.575 28.8859 291.122 31.7788 292.205 35.346C292.901 37.6734 294.499 46.8743 294.37 47.7878C294.293 48.2664 294.035 48.0489 292.127 46.026C289.188 42.872 285.424 39.9138 281.866 37.9344C280.268 37.0426 277.638 35.5853 276.014 34.6935C272.585 32.8011 269.311 30.2779 267.197 27.8853C266.372 26.9717 265.598 26.1234 265.495 26.0147C265.315 25.8189 265.392 26.95 265.676 28.9076C265.779 29.5602 265.753 29.6037 265.444 29.2556C264.49 28.1681 264.49 30.887 265.418 33.6277C267.945 40.9144 271.606 44.4599 282.305 49.9195C287.461 52.5514 289.807 53.9652 292.308 56.0099C295.015 58.185 296.51 59.7729 298.521 62.5788C300.248 64.9932 301.125 65.7545 301.409 65.102C301.538 64.7757 302.44 66.32 303.42 68.5822C303.935 69.7568 304.58 59.9686 304.606 50.8983C304.606 42.4805 304.399 40.3054 303.162 36.2161C301.228 29.8429 297.129 25.1446 289.73 20.8596C287.281 19.4457 282.305 16.9226 282.305 17.0966Z" fill="#C07F00"/>
<path d="M47.9789 19.9025C46.3547 20.6856 44.9883 21.3164 44.9109 21.3164C44.8594 21.3164 44.9109 21.2076 44.9883 21.0771C45.375 20.5551 41.9719 22.2517 39.832 23.6655C33.7219 27.646 30.1898 32.0398 28.5141 37.7604C27.6633 40.6099 27.4055 42.263 27.0445 46.548C26.6062 52.0729 27.1734 64.4494 27.9727 66.0155C28.3594 66.8203 28.8492 67.0161 28.9008 66.3853C28.9781 65.5587 29.3391 67.4076 29.3648 68.7562C29.3648 69.5393 29.468 70.2571 29.5711 70.3223C29.6484 70.4093 29.9836 69.8438 30.3187 69.0825C31.0664 67.2554 33.0258 63.9709 34.3406 62.3178C37.5375 58.3373 41.5336 55.3356 48.1336 51.9859C56.5125 47.7661 59.9672 45.3734 62.6742 41.8932C65.0719 38.8263 66.7992 34.6282 67.5469 30.0169C67.7016 28.9946 67.882 27.994 67.9336 27.7765C68.0625 27.1457 67.7016 27.3633 66.9797 28.3421C66.3609 29.1469 64.0922 31.1915 64.5562 30.4955C65.1234 29.6907 63.3961 30.713 60.6117 32.8881C59.4516 33.8234 57.2859 35.2155 55.8422 36.0203C54.4242 36.8034 51.8461 38.1955 50.1445 39.1308C48.3914 40.0661 46.0711 41.6104 44.782 42.6328C42.668 44.3076 37.95 48.8102 37.1766 49.876C36.8414 50.311 36.8414 50.2893 36.9703 49.5932C37.0734 49.1799 37.5375 46.461 38.0273 43.5898C38.543 40.6969 39.1875 37.5647 39.4711 36.6294C40.8633 32.1268 43.8023 27.298 48.8297 21.2511C50.9953 18.6409 51.1242 18.4887 50.9953 18.4887C50.9437 18.4887 49.6031 19.1195 47.9789 19.9025Z" fill="#C07F00"/>
<path d="M307.287 36.8034C308.034 38.1955 308.602 39.9791 308.112 39.3918C307.57 38.7175 307.519 40.3271 307.957 43.046C308.653 47.1353 308.55 50.8765 307.467 58.9463C306.952 62.7093 306.359 68.0384 306.152 70.7791C305.92 73.5415 305.714 75.8037 305.688 75.8472C305.637 75.8689 305.224 75.1511 304.76 74.2158C303.626 71.8884 301.641 69.3217 299.733 67.7556C298.856 67.0378 296.175 65.3195 293.777 63.9492C287.152 60.1427 284.135 57.3802 280.887 52.0946L279.701 50.137L279.855 51.6596C279.933 52.4862 280.062 53.6172 280.139 54.161C280.191 54.7048 280.191 55.0093 280.087 54.8571C279.83 54.3785 279.495 54.5743 279.34 55.2921C278.953 56.9887 280.603 62.0785 282.82 66.0373C284.883 69.735 287.152 72.4322 294.267 79.5232C299.269 84.5477 302.234 88.7675 304.605 94.2924C305.946 97.4246 306.075 97.6856 306.72 98.2076C307.132 98.5556 307.158 98.5556 307.312 98.1859C307.416 97.9249 307.699 98.5339 308.112 99.926L308.73 102.036L312.907 87.941C317.238 73.3893 318.115 70.0395 318.759 65.8633C319.687 59.9469 319.533 55.7924 318.27 51.5291C316.697 46.2217 313.371 41.3712 308.034 36.5859C307.338 35.9768 306.72 35.4548 306.668 35.4548C306.616 35.4548 306.9 36.0638 307.287 36.8034Z" fill="#C07F00"/>
<path d="M25.1109 38.1085C24.4148 38.7393 23.3578 39.7398 22.7391 40.3271C22.1203 40.9362 21.7078 41.2407 21.8109 41.0449C22.0945 40.4141 21.45 40.6316 20.3414 41.5669C19.0008 42.698 16.9898 45.3082 15.7266 47.5268C11.8078 54.4873 11.3953 61.7958 14.2055 73.6285C14.9531 76.7172 19.6195 92.6175 21.0633 96.946C21.7594 99.0559 22.6359 100.252 22.9453 99.5127C23.0484 99.2517 23.2805 99.6432 23.6672 100.731C23.9766 101.623 24.2344 102.514 24.2344 102.71C24.2344 102.906 24.3633 103.145 24.4922 103.21C24.6469 103.276 24.75 103.167 24.75 102.949C24.75 102.319 26.2195 97.6421 27.0961 95.554C29.3906 89.9856 32.4328 85.8528 39.1617 79.2186C45.2719 73.15 47.9273 69.7568 49.9898 65.363C51.6398 61.8393 52.9805 56.9887 53.4961 52.7472L53.6508 51.4421L52.6453 53.0734C51.5625 54.8353 50.3508 56.5537 50.1445 56.5537C50.093 56.5537 50.093 56.4014 50.1961 56.2056C50.557 55.4226 49.2164 56.3797 47.3859 58.2503C46.3547 59.2943 44.8336 60.7082 43.957 61.426C42.5648 62.5788 41.4305 63.2966 35.7586 66.6463C32.8969 68.3429 30.8086 69.9525 29.8031 71.2141C28.5398 72.8455 26.0906 76.6955 25.9875 77.2828C25.9359 77.5438 25.807 76.5867 25.7039 75.1511C25.2656 68.7562 24.9047 65.45 24.2086 60.4689C23.2289 53.6607 22.9969 48.1576 23.5641 45.1994C24.0023 42.9373 25.2398 39.3918 26.0906 37.9997C26.3742 37.5212 26.5547 37.1079 26.4773 37.0644C26.4258 37.0209 25.807 37.4777 25.1109 38.1085Z" fill="#C07F00"/>
<path d="M323.813 71.8667C323.813 72.715 322.962 75.3034 322.781 75.0424C322.446 74.5856 321.595 75.5209 321.157 76.8042C320.951 77.4568 320.255 79.8494 319.584 82.1116C317.522 89.2678 315.923 93.183 312.623 99.1864C309.762 104.32 306.797 110.606 306.797 111.476C306.797 112.39 306.539 111.519 306.152 109.388C304.863 102.123 301.46 95.4234 292.024 81.6765C290.477 79.3927 289.085 77.435 288.956 77.3263C288.802 77.1958 288.75 77.7613 288.776 78.8489C288.827 80.0887 288.75 80.589 288.518 80.589C287.616 80.589 287.487 82.7641 288.105 87.3319C289.266 95.728 290.735 101.318 294.164 110.171C297.464 118.676 297.851 120.59 297.825 128.312C297.799 133.858 297.928 134.793 298.702 134.554C299.011 134.467 299.037 134.663 298.908 135.685L298.779 136.925L300.893 135.076C315.614 122.178 323.916 110.997 326.752 100.231C327.757 96.3805 328.015 93.7051 327.86 89.072C327.705 84.874 327.37 82.6989 326.262 78.4138C325.127 74.1071 323.813 70.5833 323.813 71.8667Z" fill="#C07F00"/>
<path d="M8.40468 75.0859C7.88906 76.478 7.63125 76.9783 7.50234 76.7172C7.34765 76.3257 7.32187 76.3257 6.90937 76.7172C6.23906 77.3263 5.775 78.4139 5.20781 80.6978C1.59843 94.9014 4.5375 107.321 14.5148 119.85C19.9805 126.702 29.6742 136.164 31.2727 136.164C31.4016 136.164 31.4016 136.033 31.2984 135.881C31.1953 135.751 31.8398 136.207 32.6906 136.903C33.5672 137.621 34.3148 138.165 34.3664 138.1C34.418 138.056 34.3148 136.729 34.1344 135.185C33.7219 131.683 33.6961 125.962 34.0312 123.157C34.418 120.177 35.2945 117.24 37.5375 111.476C40.425 104.037 41.7398 99.5127 42.9 92.9873C43.5961 89.0503 44.7562 78.7836 44.5242 78.5879C44.4727 78.5444 43.8023 79.4144 43.0547 80.4802C42.2812 81.5678 41.6109 82.3509 41.5078 82.2203C40.9406 81.4373 39.007 83.7429 35.0367 89.9421C29.4937 98.5992 27.3281 103.189 25.7555 109.627C25.3172 111.367 24.9305 112.803 24.9047 112.825C24.8789 112.846 24.518 112.02 24.1312 110.976C23.0227 108.083 21.682 105.32 19.2586 101.014C16.5 96.0977 14.8242 92.2695 13.2773 87.5929C12.0141 83.6777 10.2867 77.348 9.77109 74.6944C9.59062 73.8026 9.38437 73.0848 9.28125 73.0848C9.2039 73.0848 8.81718 73.9983 8.40468 75.0859Z" fill="#C07F00"/>
<path d="M288.93 110.889C288.415 111.694 287.977 112.216 287.977 112.063C287.977 111.541 286.971 112.216 286.404 113.129C285.708 114.282 284.496 118.306 284.006 121.047C283.439 124.201 283.155 126.637 282.562 133.227C281.325 147.214 280.165 152.978 276.633 163.049C275.808 165.398 275.705 166.855 276.427 166.485C276.71 166.333 276.684 166.42 276.194 167.899C276.04 168.443 276.04 168.443 277.561 167.725C280.887 166.137 290.142 161.156 294.293 158.698C308.524 150.281 316.645 143.146 321.518 134.75C324.973 128.768 326.648 122.417 326.648 115.282V112.129L325.437 114.043C324.766 115.087 324.148 115.826 324.07 115.718C323.684 115.195 322.446 116.544 320.074 120.024C314.634 127.92 311.798 130.813 303.961 136.381C301.486 138.143 299.037 139.97 298.521 140.427C297.155 141.689 293.519 145.343 293.159 145.843L292.849 146.278L292.978 145.843C294.087 142.298 294.448 134.315 293.803 128.986C293.133 123.7 290.58 110.497 290.065 109.692C289.962 109.518 289.523 109.975 288.93 110.889Z" fill="#C07F00"/>
<path d="M43.0547 111.128C43.0547 111.976 42.4359 113.76 42.2555 113.499C41.8172 112.912 41.018 113.999 40.5023 115.913C39.2648 120.394 37.7695 129.834 37.5117 134.859C37.3313 137.773 37.4086 139.122 38.1563 145.517C38.2594 146.409 38.3109 147.17 38.3109 147.192C38.2852 147.214 37.5891 146.431 36.7383 145.473C34.3406 142.733 32.175 140.906 27.8437 137.904C19.4133 132.075 15.0305 127.268 8.92031 117.24C6.90937 113.934 6.75468 113.76 6.6 114.412C6.52265 114.804 6.44531 115.674 6.41953 116.348C6.41953 117.088 6.34218 117.414 6.21328 117.175C6.05859 116.783 6.00703 116.783 5.67187 117.131C4.82109 118.001 5.10468 122.265 6.34218 127.007C9.74531 139.949 19.6711 150.107 40.2703 161.787C47.1023 165.637 51.6914 167.943 52.6711 168.008C53.1352 168.051 54.3469 168.465 55.3266 168.965C56.3063 169.444 57.1313 169.813 57.157 169.813C57.1828 169.792 56.5125 168.03 55.6617 165.92C52.0266 156.806 50.4023 149.215 49.2422 136.164C48.0047 122.199 46.9992 117.305 44.3438 112.498C43.3383 110.671 43.0547 110.388 43.0547 111.128Z" fill="#C07F00"/>
<path d="M277.329 138.556C275.911 140.101 275.241 140.688 274.957 140.579C274.132 140.318 270.961 143.864 267.12 149.367C263.742 154.218 262.17 157.371 259.849 164.006C258.045 169.139 256.884 171.88 255.441 174.338C253.894 176.926 251.341 180.45 248.97 183.19C245.412 187.367 245.128 187.758 245.257 188.345C245.334 188.693 245.205 189.129 244.87 189.498C244.613 189.846 244.484 190.107 244.638 190.107C245.025 190.107 255.776 187.91 261.035 186.758C279.572 182.668 290.967 179.079 298.134 175.055C300.609 173.663 303.884 171.118 305.534 169.269C307.261 167.334 309.195 164.049 310.406 161.026C311.463 158.307 314.892 147.496 314.738 147.344C314.66 147.301 313.964 148.127 313.165 149.171C311.592 151.194 310.303 152.608 310.561 151.977C311.025 150.868 309.117 152.412 305.972 155.74C299.836 162.2 295.634 164.723 284.883 168.356C279.907 170.053 277.793 170.879 274.699 172.402C273.281 173.076 271.502 173.924 270.729 174.272C269.955 174.599 269.156 175.012 268.976 175.142C268.77 175.295 269.208 174.381 269.981 173.119C272.559 168.9 273.307 166.29 274.699 156.501C275.911 147.931 277.071 142.842 279.056 137.404C279.263 136.838 279.417 136.381 279.366 136.381C279.34 136.381 278.412 137.36 277.329 138.556Z" fill="#C07F00"/>
<path d="M53.8828 137.839C53.8828 137.926 54.1922 138.839 54.5273 139.84C55.1977 141.776 55.3523 142.624 54.9398 142.058C54.7594 141.819 54.6563 141.841 54.4242 142.211C54.218 142.537 54.2438 143.103 54.5016 144.364C55.8422 150.65 56.2805 152.978 56.9766 157.915C58.2656 166.899 58.7297 168.813 60.6117 172.684C61.1789 173.837 61.7461 175.142 61.8492 175.599L62.0813 176.426L61.4109 176.034C57.2602 173.729 52.6711 171.749 46.5352 169.661C37.8984 166.746 34.5469 165.05 30.1641 161.395C27.1477 158.894 24.2086 155.784 20.9602 151.651C19.5937 149.954 18.4594 148.562 18.4336 148.562C18.382 148.562 18.6141 149.476 18.9492 150.563C19.2844 151.673 19.6195 152.869 19.6969 153.239L19.8516 153.891L19.4906 153.347L19.1297 152.804L18.9492 153.413C18.6656 154.348 19.0008 155.892 20.2383 159.568C22.5328 166.311 24.4922 169.422 28.6172 172.924C32.6391 176.339 37.4859 178.84 45.2461 181.472C48.9844 182.755 57.4664 185.148 57.75 184.996C57.8789 184.931 58.0078 184.974 58.0594 185.083C58.0852 185.192 58.4977 185.322 58.9102 185.366C59.3484 185.409 59.7352 185.496 59.8125 185.583C59.8898 185.648 60.3023 185.757 60.7148 185.801C61.1531 185.844 61.5398 185.931 61.6172 186.018C61.6945 186.083 62.107 186.192 62.5195 186.236C62.9578 186.279 63.3445 186.366 63.4477 186.453C63.525 186.54 63.9117 186.649 64.35 186.692C64.7625 186.736 65.2523 186.823 65.407 186.91C65.5617 186.997 66.0258 187.106 66.4383 187.149C66.825 187.171 70.6922 187.954 75.0234 188.868C82.1391 190.347 88.7391 191.63 88.868 191.543C88.8938 191.521 88.043 190.586 86.9859 189.455C85.9031 188.324 84.0727 186.257 82.9125 184.887C77.0859 178.035 74.7399 174.033 72.1875 166.507C69.7899 159.329 67.7531 155.262 64.0148 149.998C61.3336 146.257 53.8828 137.273 53.8828 137.839Z" fill="#C07F00"/>
<path d="M256.755 164.745C256.059 165.289 251.264 168.008 251.47 167.747C252.605 166.203 243.375 171.793 236.285 176.926C235.305 177.644 232.057 180.254 229.066 182.712C222.028 188.541 220.92 189.129 209.318 192.957C206.766 193.805 204.755 194.566 204.806 194.653C204.884 194.74 204.368 195.001 203.646 195.219C202.95 195.458 202.383 195.719 202.383 195.784C202.383 195.871 202.692 196.045 203.105 196.154C203.491 196.285 203.646 196.394 203.466 196.394C203.285 196.415 203.208 196.502 203.285 196.633C203.363 196.742 203.285 196.85 203.105 196.85C202.924 196.872 203.105 197.024 203.543 197.22C203.955 197.416 205.245 197.655 206.379 197.742C207.513 197.851 209.576 198.177 210.968 198.46C212.36 198.764 213.701 198.938 213.933 198.873C214.216 198.764 214.268 198.808 214.113 199.025C213.959 199.243 214.062 199.265 214.603 199.156C214.964 199.091 215.273 199.091 215.273 199.199C215.273 199.286 215.712 199.395 216.227 199.395C216.769 199.417 217.233 199.526 217.284 199.656C217.336 199.787 217.465 199.852 217.594 199.787C217.723 199.721 219.244 199.961 220.997 200.309C234.945 203.136 246.727 204.159 255.105 203.267C260.081 202.745 263.278 201.962 267.48 200.222C272.688 198.047 276.607 195.197 286.945 185.996C289.575 183.669 291.586 181.82 291.457 181.864C291.302 181.907 289.523 182.886 287.461 184.039C283.104 186.475 280.99 187.519 281.505 186.975C281.712 186.779 279.727 187.497 277.123 188.585C274.519 189.651 271.425 190.825 270.265 191.173C269.105 191.499 268.228 191.869 268.331 191.956C268.434 192.065 268.383 192.065 268.228 192C268.048 191.913 267.532 191.978 267.068 192.152C264.696 192.979 261.551 193.196 249.047 193.392C242.318 193.501 236.363 193.653 235.847 193.718C235.305 193.783 234.3 193.74 233.578 193.588L232.263 193.327L234.016 192.435C237.6 190.629 239.895 188.955 242.163 186.475C243.968 184.495 244.819 183.256 249.279 176.317C251.573 172.75 254.332 168.66 255.389 167.203C257.245 164.702 257.555 164.114 256.755 164.745Z" fill="#C07F00"/>
<path d="M76.0547 166.05C76.0547 166.116 76.5445 166.833 77.1117 167.638C77.7047 168.465 78.2461 169.204 78.3234 169.335C78.4008 169.444 78.2719 169.422 78.0398 169.248C77.1117 168.617 77.6016 170.096 79.1227 172.554C83.1445 179.058 86.3414 183.908 88.043 186.083C89.8477 188.389 91.0078 189.411 95.932 193.218C97.1695 194.153 97.5047 194.523 97.2211 194.653C96.9375 194.806 96.9375 194.871 97.2211 194.98C97.4273 195.045 96.6539 195.045 95.5195 194.98C94.3852 194.914 88.2492 194.762 81.8555 194.675C69.4805 194.479 68.2172 194.392 63.6797 193.24C58.1625 191.826 51.4078 188.846 44.2664 184.626C42.8742 183.821 41.6625 183.147 41.5594 183.147C41.482 183.147 42.4875 184.104 43.8281 185.257C46.5867 187.649 48.3656 189.324 47.5148 188.715C46.8703 188.258 46.7672 188.432 47.257 189.172C47.8758 190.129 51.4336 193.435 53.857 195.306C57.157 197.873 60.5859 200.026 63.3703 201.266C65.9484 202.419 69.0164 203.441 69.3516 203.267C69.4547 203.202 69.6094 203.245 69.6609 203.354C69.6867 203.484 70.1508 203.615 70.6406 203.658C71.1305 203.724 72.7031 203.963 74.1211 204.224C85.0781 206.138 100.16 204.637 122.848 199.352C127.23 198.308 130.634 197.438 130.84 197.242C130.917 197.198 129.963 196.829 128.7 196.415C118.542 193.196 111.916 190.76 108.926 189.129C108.23 188.759 105.213 186.388 102.223 183.865C95.4164 178.144 89.5383 174.011 79.9219 168.247C78.143 167.203 76.5445 166.224 76.3899 166.116C76.2094 166.007 76.0547 165.963 76.0547 166.05Z" fill="#C07F00"/>
<path d="M182.145 193.631C179.515 193.762 174.745 194.458 173.302 194.914C172.966 195.023 172.605 195.067 172.477 195.001C172.219 194.871 168.506 195.893 165.825 196.807L163.943 197.459L160.411 196.611C152.47 194.675 146.463 194.436 139.863 195.784C138.729 196.024 137.388 196.263 136.898 196.306C136.409 196.372 135.016 196.72 133.805 197.09C131.691 197.742 130.943 197.916 126.998 198.677C125.864 198.895 125.091 199.178 124.859 199.46C124.137 200.331 118.336 202.658 113.128 204.159C111.659 204.572 110.292 204.985 110.086 205.051C109.88 205.116 109.545 205.159 109.338 205.138C109.132 205.116 109.08 205.181 109.209 205.355C109.338 205.551 109.261 205.573 108.926 205.486C108.694 205.399 108.333 205.42 108.178 205.529C108.023 205.638 106.915 205.921 105.703 206.16C96.6024 207.987 84.1242 208.205 71.1047 206.791C69.7125 206.638 68.5781 206.595 68.5781 206.682C68.5781 206.769 68.6555 206.856 68.7844 206.856C68.8875 206.856 69.4805 207.269 70.125 207.748C70.7695 208.226 71.1047 208.553 70.8984 208.487C70.6922 208.4 70.9758 208.727 71.543 209.205C74.6883 211.902 89.4352 218.384 93.1992 218.71C93.6375 218.754 94.9524 218.993 96.1641 219.232C99.9281 219.972 102.48 220.19 106.064 220.059C113.67 219.776 119.754 217.601 129.37 211.728C139.966 205.246 144.994 202.854 149.428 202.158C150.176 202.049 150.305 202.092 150.305 202.44C150.305 203.115 148.99 203.985 141.926 207.987C132.619 213.251 122.435 219.581 121.559 220.625C121.352 220.886 121.172 221.408 121.172 221.777C121.172 222.974 123.647 225.345 124.91 225.345C125.271 225.345 125.709 225.584 126.019 225.932L126.534 226.519L130.891 222.93C136.202 218.58 140.276 215.513 145.045 212.294C150.846 208.379 158.22 204.398 162.138 203.028L163.634 202.527L165.541 203.071C168.609 203.941 174.384 206.464 178.252 208.596C185.187 212.446 190.498 216.1 199.16 223.061C203.337 226.41 204.239 226.998 204.729 226.737C204.884 226.671 205.373 226.911 205.838 227.281L206.663 227.955L209.189 225.432C210.581 224.04 211.613 222.843 211.509 222.734C211.38 222.647 209.653 221.516 207.668 220.233C196.195 212.794 184.362 206.095 176.009 202.31C174.72 201.701 173.456 201.092 173.25 200.94C173.044 200.787 172.915 200.679 172.966 200.7C173.018 200.744 173.224 200.592 173.379 200.396C173.663 200.091 174.178 200.026 176.756 200.026C179.721 200.048 182.738 200.374 183.021 200.722C183.098 200.809 183.691 201.027 184.336 201.179C187.662 201.984 192.277 204.246 199.186 208.4C205.038 211.968 208.519 213.903 211.148 215.078C213.649 216.209 217.594 217.558 218.032 217.427C218.213 217.362 218.367 217.405 218.367 217.536C218.367 217.666 218.47 217.71 218.573 217.645C218.702 217.579 219.424 217.666 220.198 217.84C224.245 218.732 229.659 218.884 233.991 218.275C240.384 217.34 247.861 214.686 255.75 210.51C258.251 209.183 264.799 205.29 264.696 205.203C264.67 205.159 263.82 205.225 262.84 205.333C251.857 206.486 240.359 206.551 232.366 205.551C223.755 204.442 217.155 202.658 206.25 198.482C195.809 194.479 189.647 193.24 182.145 193.631Z" fill="#C07F00"/>
</svg>
